<svg width="42" height="42" viewBox="0 0 42 42" fill="none" xmlns="http://www.w3.org/2000/svg">
<path d="M4.06671 22.8067C7.0603 26.7211 9.57081 23.7005 11.1078 20.5032L12.1915 17.9756L9.02567 8.91474C8.37489 7.05217 6.61759 5.80469 4.6446 5.80469C1.44885 5.80469 -0.790572 8.95931 0.263525 11.9762L4.03176 22.7612C4.04348 22.7764 4.05513 22.7916 4.06671 22.8067Z" fill="url(#paint0_linear_56990_5859)"/>
<path d="M29.264 19.4099C27.7678 23.3375 25.0345 27.5554 21.5992 24.3559L25.5201 33.3047C26.2377 34.9424 27.8563 36.0004 29.6443 36.0004C29.7117 36.0004 29.7786 35.999 29.845 35.9961C29.9122 35.999 29.9799 36.0004 30.0481 36.0004C32.0211 36.0004 33.7784 34.7529 34.4291 32.8903L41.7365 11.9762C42.7906 8.95931 40.5512 5.80469 37.3554 5.80469C35.3824 5.80469 33.6251 7.05217 32.9743 8.91474L29.2881 19.465L29.264 19.4099Z" fill="url(#paint1_linear_56990_5859)"/>
<path d="M16.3524 32.9695C16.0657 33.7207 15.5959 34.3643 15.0054 34.8573C14.2012 35.5626 13.1434 36.0004 11.9529 36.0004C9.9799 36.0004 8.2226 34.7529 7.57182 32.8903L4.03418 22.7654C4.04481 22.7792 4.05538 22.7929 4.0659 22.8067C7.05948 26.721 9.56999 23.7004 11.107 20.5031L12.1917 17.9733L12.2163 18.0437L15.7589 8.76008C16.438 6.98045 18.1451 5.80469 20.05 5.80469C20.102 5.80469 20.1537 5.80553 20.2052 5.8072C20.2562 5.80554 20.3074 5.8047 20.3589 5.8047C22.147 5.8047 23.7656 6.86266 24.4831 8.50038L29.2874 19.4654L29.264 19.412C27.7672 23.3401 25.0332 27.5571 21.5973 24.3534L20.5513 21.9661L16.3524 32.9695Z" fill="#A9EB77"/>
<defs>
<linearGradient id="paint0_linear_56990_5859" x1="2.83085" y1="5.80469" x2="9.0244" y2="23.7755" gradientUnits="userSpaceOnUse">
<stop stop-color="#85E04A"/>
<stop offset="1" stop-color="#146A20"/>
</linearGradient>
<linearGradient id="paint1_linear_56990_5859" x1="38.7758" y1="5.80469" x2="27.1112" y2="36.0008" gradientUnits="userSpaceOnUse">
<stop stop-color="#85E04A"/>
<stop offset="1" stop-color="#146A20"/>
</linearGradient>
</defs>
</svg>
